<svg version="1.0" xmlns="http://www.w3.org/2000/svg"
 width="1024.000000pt" height="1024.000000pt" viewBox="0 0 1024.000000 1024.000000"
 preserveAspectRatio="xMidYMid meet">

<g transform="translate(0.000000,1024.000000) scale(0.100000,-0.100000)"
fill="#000000" stroke="none">
<path d="M4852 10230 c-504 -30 -990 -126 -1437 -285 -729 -259 -1357 -657
-1910 -1210 -577 -576 -984 -1234 -1240 -2000 -176 -528 -258 -1041 -258
-1615 0 -454 42 -805 149 -1240 209 -851 654 -1656 1270 -2299 619 -646 1419
-1132 2268 -1375 1139 -327 2354 -254 3431 206 274 117 605 296 840 455 474
319 917 741 1258 1197 1157 1552 1338 3628 467 5356 -806 1597 -2372 2652
-4155 2799 -180 15 -522 21 -683 11z m493 -2444 c449 -97 786 -436 881 -886
24 -114 24 -316 0 -428 -35 -164 -94 -302 -187 -438 -59 -85 -201 -225 -287
-283 -95 -64 -236 -128 -347 -158 -92 -25 -116 -27 -285 -27 -169 0 -194 2
-283 27 -112 30 -256 95 -348 158 -148 100 -310 288 -384 445 -127 269 -145
586 -48 859 78 219 225 412 415 548 129 92 337 174 498 197 87 12 289 5 375
-14z m145 -2881 c630 -72 1142 -238 1525 -493 138 -92 222 -166 348 -307 106
-119 146 -183 183 -290 28 -79 28 -83 32 -370 4 -312 -3 -394 -43 -501 -74
-197 -256 -362 -465 -421 -62 -17 -151 -18 -1925 -18 -1525 0 -1870 2 -1915
13 -30 8 -97 34 -149 59 -77 37 -108 59 -170 122 -125 126 -182 245 -203 426
-15 136 -5 574 16 650 38 136 117 258 264 409 148 152 305 265 520 375 369
188 785 298 1367 361 111 12 453 4 615 -15z"/>
</g>
</svg>
